<?xml version="1.0" encoding="UTF-8" standalone="no"?>
<!-- Created with Inkscape (http://www.inkscape.org/) -->

<svg
   width="113.42335"
   height="39.368736"
   viewBox="0 0 30.009927 10.416311"
   version="1.1"
   id="svg1"
   xmlns="http://www.w3.org/2000/svg"
   xmlns:svg="http://www.w3.org/2000/svg">
  <defs
     id="defs1">
    <clipPath
       clipPathUnits="userSpaceOnUse"
       id="clipPath71">
      <path
         id="lpe_path-effect71"
         style="fill:#deac36;stroke:#000000;stroke-miterlimit:10;stroke-opacity:0.0198413"
         class="powerclip"
         d="M 131.07013,359.25952 H 200.2307 V 398.557 h -69.16057 z m 34.66506,14.54798 -6,7 h 12.5 z" />
    </clipPath>
    <clipPath
       clipPathUnits="userSpaceOnUse"
       id="clipPath72">
      <path
         id="lpe_path-effect72"
         style="fill:#deac36;fill-opacity:1;stroke:#000000;stroke-opacity:0.0198413"
         class="powerclip"
         d="m 488.61409,538.59668 h 63.26513 v 47.27971 h -63.26513 z m 16.625,26.1411 v 10e-4 h 20.875 c 5.375,0.875 4.375,-5.563 4.375,-5.563 0.5,-5.438 -2.75,-5.563 -2.75,-5.563 h -22.5 z" />
    </clipPath>
    <clipPath
       clipPathUnits="userSpaceOnUse"
       id="clipPath74">
      <path
         id="lpe_path-effect74"
         style="fill:#deac36;fill-opacity:1;stroke:#000000;stroke-opacity:0.0198413"
         class="powerclip"
         d="m 618.25809,538.59668 h 63.26513 v 47.27971 h -63.26513 z m 16.625,26.1411 v 10e-4 h 20.875 c 5.375,0.875 4.375,-5.563 4.375,-5.563 0.5,-5.438 -2.75,-5.563 -2.75,-5.563 h -22.5 z" />
    </clipPath>
    <clipPath
       clipPathUnits="userSpaceOnUse"
       id="clipPath73">
      <path
         id="lpe_path-effect73"
         style="fill:#deac36;fill-opacity:1;stroke:#000000;stroke-opacity:0.0198413"
         class="powerclip"
         d="m 545.86409,534.16854 h 58.331 v 45.94424 h -58.331 z m 17.375,18.44424 v 6.125 l 20,0.479 c 0,0 6,-2.604 -0.875,-6.604 z" />
    </clipPath>
    <clipPath
       clipPathUnits="userSpaceOnUse"
       id="clipPath4">
      <path
         d="M 0,2267.72 H 1417.32 V 0 H 0 Z"
         transform="translate(-1105.0587,-1066.4639)"
         id="path4-1" />
    </clipPath>
    <clipPath
       clipPathUnits="userSpaceOnUse"
       id="clipPath6">
      <path
         d="M 0,2267.72 H 1417.32 V 0 H 0 Z"
         transform="translate(-736.66802,-1054.3047)"
         id="path6-5" />
    </clipPath>
    <clipPath
       clipPathUnits="userSpaceOnUse"
       id="clipPath8">
      <path
         d="M 0,2267.72 H 1417.32 V 0 H 0 Z"
         transform="translate(-967.00202,-1100.4806)"
         id="path8-2" />
    </clipPath>
    <clipPath
       clipPathUnits="userSpaceOnUse"
       id="clipPath26">
      <path
         d="M 0,2267.72 H 1417.32 V 0 H 0 Z"
         transform="translate(-1335.4971,-1057.166)"
         id="path26" />
    </clipPath>
    <clipPath
       clipPathUnits="userSpaceOnUse"
       id="clipPath30">
      <path
         d="M 0,2267.72 H 1417.32 V 0 H 0 Z"
         transform="translate(-766.80182,-1088.0675)"
         id="path30" />
    </clipPath>
    <clipPath
       clipPathUnits="userSpaceOnUse"
       id="clipPath32">
      <path
         d="M 0,2267.72 H 1417.32 V 0 H 0 Z"
         transform="translate(-1266.7266,-1088.0303)"
         id="path32" />
    </clipPath>
    <clipPath
       clipPathUnits="userSpaceOnUse"
       id="clipPath34">
      <path
         d="M 0,2267.72 H 1417.32 V 0 H 0 Z"
         transform="translate(-656.45462,-1049.3145)"
         id="path34" />
    </clipPath>
    <clipPath
       clipPathUnits="userSpaceOnUse"
       id="clipPath36">
      <path
         d="M 0,2267.72 H 1417.32 V 0 H 0 Z"
         transform="translate(-670.29982,-1052.6309)"
         id="path36" />
    </clipPath>
    <clipPath
       clipPathUnits="userSpaceOnUse"
       id="clipPath38">
      <path
         d="M 0,2267.72 H 1417.32 V 0 H 0 Z"
         transform="translate(-696.93022,-1052.8439)"
         id="path38" />
    </clipPath>
    <clipPath
       clipPathUnits="userSpaceOnUse"
       id="clipPath40">
      <path
         d="M 0,2267.72 H 1417.32 V 0 H 0 Z"
         transform="translate(-1342.6758,-1051.9952)"
         id="path40" />
    </clipPath>
    <clipPath
       clipPathUnits="userSpaceOnUse"
       id="clipPath42">
      <path
         d="M 0,2267.72 H 1417.32 V 0 H 0 Z"
         transform="translate(-1105.0587,-1066.4639)"
         id="path42" />
    </clipPath>
    <clipPath
       clipPathUnits="userSpaceOnUse"
       id="clipPath44">
      <path
         d="M 0,2267.72 H 1417.32 V 0 H 0 Z"
         transform="translate(-967.00202,-1100.4806)"
         id="path44" />
    </clipPath>
    <clipPath
       clipPathUnits="userSpaceOnUse"
       id="clipPath10">
      <path
         d="M 0,2267.72 H 1417.32 V 0 H 0 Z"
         transform="translate(-263.0269,-1051.3076)"
         id="path10" />
    </clipPath>
    <clipPath
       clipPathUnits="userSpaceOnUse"
       id="clipPath12">
      <path
         d="M 0,2267.72 H 1417.32 V 0 H 0 Z"
         transform="translate(-337.32181,-1073.0978)"
         id="path12-8" />
    </clipPath>
    <clipPath
       clipPathUnits="userSpaceOnUse"
       id="clipPath14">
      <path
         d="M 0,2267.72 H 1417.32 V 0 H 0 Z"
         transform="translate(-289.99761,-1073.1201)"
         id="path14-9" />
    </clipPath>
    <clipPath
       clipPathUnits="userSpaceOnUse"
       id="clipPath16">
      <path
         d="M 0,2267.72 H 1417.32 V 0 H 0 Z"
         transform="translate(-364.46001,-1082.7207)"
         id="path16-2" />
    </clipPath>
    <clipPath
       clipPathUnits="userSpaceOnUse"
       id="clipPath18">
      <path
         d="M 0,2267.72 H 1417.32 V 0 H 0 Z"
         transform="translate(-165.0381,-1068.9815)"
         id="path18" />
    </clipPath>
    <clipPath
       clipPathUnits="userSpaceOnUse"
       id="clipPath20">
      <path
         d="M 0,2267.72 H 1417.32 V 0 H 0 Z"
         transform="translate(-194.16801,-1051.2101)"
         id="path20" />
    </clipPath>
    <clipPath
       clipPathUnits="userSpaceOnUse"
       id="clipPath22">
      <path
         d="M 0,2267.72 H 1417.32 V 0 H 0 Z"
         transform="translate(-124.7002,-1050.9824)"
         id="path22" />
    </clipPath>
    <clipPath
       clipPathUnits="userSpaceOnUse"
       id="clipPath24">
      <path
         d="M 0,2267.72 H 1417.32 V 0 H 0 Z"
         transform="translate(-90.450205,-1082.9444)"
         id="path24" />
    </clipPath>
    <clipPath
       clipPathUnits="userSpaceOnUse"
       id="clipPath28">
      <path
         d="M 0,2267.72 H 1417.32 V 0 H 0 Z"
         transform="translate(-327.77001,-1080.8301)"
         id="path28" />
    </clipPath>
    <clipPath
       clipPathUnits="userSpaceOnUse"
       id="clipPath46">
      <path
         d="M 0,2267.72 H 1417.32 V 0 H 0 Z"
         transform="translate(-337.32181,-1073.0978)"
         id="path46" />
    </clipPath>
    <clipPath
       clipPathUnits="userSpaceOnUse"
       id="clipPath48">
      <path
         d="M 0,2267.72 H 1417.32 V 0 H 0 Z"
         transform="translate(-289.99761,-1073.1201)"
         id="path48" />
    </clipPath>
    <clipPath
       clipPathUnits="userSpaceOnUse"
       id="clipPath13">
      <path
         id="lpe_path-effect17"
         style="font-variation-settings:normal;opacity:1;vector-effect:none;fill:#d4aa00;fill-opacity:1;stroke:#000000;stroke-width:0;stroke-linecap:butt;stroke-linejoin:miter;stroke-miterlimit:4;stroke-dasharray:none;stroke-dashoffset:0;stroke-opacity:1;-inkscape-stroke:none;stop-color:#000000;stop-opacity:1"
         class="powerclip"
         d="M 37.874128,92.037873 H 48.17616 V 102.35917 H 37.874128 Z m 7.464302,5.300822 10e-6,1e-5 c 0.114003,-0.08477 0.181243,-0.11401 0.181243,-0.11401 l 0.08477,-0.131546 c 0,0 0.04092,-0.10817 -0.09355,-0.04678 -0.134473,0.06139 -0.172473,0.292326 -0.172473,0.292326 z" />
    </clipPath>
    <clipPath
       clipPathUnits="userSpaceOnUse"
       id="clipPath15">
      <path
         id="lpe_path-effect41"
         style="font-variation-settings:normal;opacity:1;vector-effect:none;fill:#d4aa00;fill-opacity:1;stroke:#000000;stroke-width:0;stroke-linecap:butt;stroke-linejoin:miter;stroke-miterlimit:4;stroke-dasharray:none;stroke-dashoffset:0;stroke-opacity:1;-inkscape-stroke:none;stop-color:#000000;stop-opacity:1"
         class="powerclip"
         d="m -25.146,-18.808626 h 209.57728 v 90.01792 H -25.146 Z m 183.94318,32.773888 c 0,0 1.63822,10.049695 7.43547,12.721168 5.79713,2.671509 4.03303,-2.035734 4.03303,-2.035734 l -3.65451,-5.724483 c 0,0 -2.89878,-1.272445 -7.81356,-4.961377 z" />
    </clipPath>
    <clipPath
       clipPathUnits="userSpaceOnUse"
       id="clipPath16-7">
      <path
         d="M 0,2267.72 H 1417.32 V 0 H 0 Z"
         transform="translate(-364.46001,-1082.7207)"
         id="path16-9" />
    </clipPath>
    <clipPath
       clipPathUnits="userSpaceOnUse"
       id="clipPath10-5">
      <path
         d="M 0,2267.72 H 1417.32 V 0 H 0 Z"
         transform="translate(-263.0269,-1051.3076)"
         id="path10-4" />
    </clipPath>
    <clipPath
       clipPathUnits="userSpaceOnUse"
       id="clipPath12-3">
      <path
         d="M 0,2267.72 H 1417.32 V 0 H 0 Z"
         transform="translate(-337.32181,-1073.0978)"
         id="path12-1" />
    </clipPath>
    <clipPath
       clipPathUnits="userSpaceOnUse"
       id="clipPath14-2">
      <path
         d="M 0,2267.72 H 1417.32 V 0 H 0 Z"
         transform="translate(-289.99761,-1073.1201)"
         id="path14-3" />
    </clipPath>
    <clipPath
       clipPathUnits="userSpaceOnUse"
       id="clipPath18-3">
      <path
         d="M 0,2267.72 H 1417.32 V 0 H 0 Z"
         transform="translate(-165.0381,-1068.9815)"
         id="path18-4" />
    </clipPath>
    <clipPath
       clipPathUnits="userSpaceOnUse"
       id="clipPath20-1">
      <path
         d="M 0,2267.72 H 1417.32 V 0 H 0 Z"
         transform="translate(-194.16801,-1051.2101)"
         id="path20-1" />
    </clipPath>
    <clipPath
       clipPathUnits="userSpaceOnUse"
       id="clipPath22-3">
      <path
         d="M 0,2267.72 H 1417.32 V 0 H 0 Z"
         transform="translate(-124.7002,-1050.9824)"
         id="path22-8" />
    </clipPath>
    <clipPath
       clipPathUnits="userSpaceOnUse"
       id="clipPath24-7">
      <path
         d="M 0,2267.72 H 1417.32 V 0 H 0 Z"
         transform="translate(-90.450205,-1082.9444)"
         id="path24-4" />
    </clipPath>
    <clipPath
       clipPathUnits="userSpaceOnUse"
       id="clipPath28-2">
      <path
         d="M 0,2267.72 H 1417.32 V 0 H 0 Z"
         transform="translate(-327.77001,-1080.8301)"
         id="path28-7" />
    </clipPath>
    <clipPath
       clipPathUnits="userSpaceOnUse"
       id="clipPath46-7">
      <path
         d="M 0,2267.72 H 1417.32 V 0 H 0 Z"
         transform="translate(-337.32181,-1073.0978)"
         id="path46-9" />
    </clipPath>
    <clipPath
       clipPathUnits="userSpaceOnUse"
       id="clipPath48-3">
      <path
         d="M 0,2267.72 H 1417.32 V 0 H 0 Z"
         transform="translate(-289.99761,-1073.1201)"
         id="path48-1" />
    </clipPath>
  </defs>
  <g
     id="layer1"
     transform="translate(-26.392133,-84.178175)">
    <g
       id="g4"
       transform="matrix(0.94687795,0,0,0.94687795,2.1829629,1.1155657)">
      <path
         id="polygon10"
         style="fill:#deac36;stroke:#000000;stroke-miterlimit:10;stroke-opacity:0.0198413"
         d="m 419.86409,554.86278 -14.75,19.25 h -8.75 l -13.75,-17.75 -0.5,17.75 h -11.75 v -33 l 16.5,4.25 13.75,17 12,-17 18,-4.25 v 31.5 h -10.25 z"
         transform="matrix(0.03248342,0,0,0.03606783,14.088926,74.445275)" />
      <path
         id="polygon11"
         transform="matrix(0.03248342,0,0,0.03606783,23.724421,80.93048)"
         clip-path="url(#clipPath71)"
         d="m 180.236,393.057 -3,-4 -23,-0.25 -2.75,4.25 h -14.25 l 0.725,-0.762 24.275,-25.488 11,-2 21,28.25 z"
         style="fill:#deac36;fill-opacity:1;stroke:#000000;stroke-opacity:0.0198413" />
      <path
         fill="none"
         stroke="#000000"
         stroke-miterlimit="10"
         d="m 494.11409,574.11278 v -27 c 0,0 30.25,-4.5 46.25,-2.5 0,0 8.25,-0.75 5.25,26.25 l 0.657,4.5 c 0,0 1.427,6.917 -6.448,4.5 l -12.708,-5.083 z"
         id="path12"
         style="fill:#deac36;fill-opacity:1;stroke:#000000;stroke-opacity:0.0198413"
         clip-path="url(#clipPath72)"
         transform="matrix(0.03248342,0,0,0.03606783,14.088926,74.445275)" />
      <path
         fill="none"
         stroke="#000000"
         stroke-miterlimit="10"
         d="m 623.75809,574.11278 v -27 c 0,0 30.25,-4.5 46.25,-2.5 0,0 8.25,-0.75 5.25,26.25 l 0.657,4.5 c 0,0 1.427,6.917 -6.448,4.5 l -12.708,-5.083 z"
         id="path14"
         style="fill:#deac36;fill-opacity:1;stroke:#000000;stroke-opacity:0.0198413"
         clip-path="url(#clipPath74)"
         transform="matrix(0.03248342,0,0,0.03606783,14.088926,74.445275)" />
      <path
         fill="none"
         stroke="#000000"
         stroke-miterlimit="10"
         d="m 551.36409,572.86278 v -33.125 l 43.25,5.625 c 0,0 8.75,4.75 0.625,16.875 l 3.456,2.582 v 9.793 h -13.206 l 0.125,-7.75 -21.5,-0.375 -0.5,7.625 h -12.25 z"
         id="path16"
         style="fill:#deac36;fill-opacity:1;stroke:#000000;stroke-opacity:0.0198413"
         clip-path="url(#clipPath73)"
         transform="matrix(0.03248342,0,0,0.03606783,14.088926,74.445275)" />
      <path
         id="polygon17"
         style="fill:#deac36;stroke:#000000;stroke-miterlimit:10;stroke-opacity:0.0198413"
         d="m 605.23909,573.48778 v -25.875 l 11.375,-3.513 v 29.388 z"
         transform="matrix(0.03248342,0,0,0.03606783,14.088926,74.445275)" />
    </g>
    <path
       style="fill:#333333;fill-opacity:1;stroke:#000000;stroke-width:0;stroke-opacity:0.967803"
       d="m 38.950285,90.730585 c -0.01121,-0.0284 -0.01402,-0.278204 -0.0042,-0.374473 0.02066,-0.202777 0.09093,-0.532555 0.16664,-0.782066 0.041,-0.135132 0.04188,-0.139832 0.02464,-0.132086 -0.0067,0.003 -0.01714,0.0077 -0.0232,0.01045 -0.02556,0.01154 -0.02207,-0.179487 0.0044,-0.24412 0.0093,-0.02255 0.01246,-0.0238 0.04759,-0.01863 l 0.03767,0.0055 -0.0038,-0.155668 c -0.006,-0.245691 0.02235,-0.45781 0.09247,-0.691289 0.03506,-0.116734 0.136993,-0.369294 0.145318,-0.360048 0.008,0.0089 0.02102,0.105129 0.0281,0.207407 0.01687,0.243849 -0.02928,0.568191 -0.129915,0.912859 -0.02167,0.07422 -0.03788,0.137664 -0.03603,0.140987 0.0072,0.01287 0.101643,0.02864 0.136644,0.02281 0.05951,-0.0099 0.0981,-0.04822 0.134832,-0.133847 0.0575,-0.13404 0.12664,-0.190743 0.23315,-0.191189 0.03201,-1.44e-4 0.0602,0.002 0.06264,0.0047 0.0024,0.0027 -9.1e-4,0.02706 -0.0075,0.0541 -0.03304,0.136581 -0.0706,0.363935 -0.142197,0.860701 -0.0143,0.09919 -0.02911,0.184697 -0.03291,0.190024 -0.01112,0.01558 -0.107721,-0.0016 -0.162498,-0.02889 -0.05894,-0.02937 -0.104788,-0.08383 -0.130736,-0.155296 -0.01572,-0.0433 -0.01854,-0.06779 -0.0188,-0.163631 0,-0.06199 -0.0032,-0.121886 -0.0067,-0.133099 -0.0098,-0.03127 -0.04636,-0.04805 -0.0901,-0.0414 -0.04299,0.0065 -0.03913,-0.0037 -0.05744,0.151956 -0.06279,0.53347 -0.161059,0.956343 -0.241605,1.039693 -0.01875,0.01941 -0.0205,0.0197 -0.0265,0.0045 z"
       id="path58" />
    <path
       style="fill:#deac36;fill-opacity:1;stroke:#000000;stroke-width:0;stroke-opacity:0.967803"
       d="m 39.939287,94.586057 c -0.0236,-0.02693 -0.0109,-0.04827 0.07108,-0.11937 0.07582,-0.06576 0.306802,-0.23997 0.393851,-0.29705 0.02116,-0.01387 0.03658,-0.02732 0.03426,-0.02989 -0.0023,-0.0026 -0.02652,-0.01045 -0.0538,-0.01751 -0.07897,-0.02046 -0.172031,-0.06387 -0.230933,-0.10773 -0.02995,-0.02231 -0.05711,-0.04051 -0.06036,-0.04046 -0.0032,7.2e-5 -0.226069,0.08067 -0.495161,0.179155 l -0.489262,0.179055 -0.05375,-0.02085 c -0.06413,-0.02488 -0.119708,-0.06349 -0.111811,-0.07768 0.0064,-0.01146 0.418835,-0.236979 0.697439,-0.381338 0.102728,-0.05323 0.189751,-0.09985 0.193386,-0.103602 0.0036,-0.0038 -0.03019,-0.03154 -0.07517,-0.06175 -0.506332,-0.340093 -0.854044,-0.914369 -1.027382,-1.696816 -0.05502,-0.248367 -0.08993,-0.525465 -0.09913,-0.786899 l -0.0053,-0.151204 0.142066,0.08126 c 0.370928,0.212169 0.668366,0.310132 0.978287,0.322205 0.317808,0.01238 0.554887,-0.06515 0.846299,-0.27677 0.106012,-0.07698 0.140981,-0.0993 0.155579,-0.0993 0.01474,0 0.07124,0.146282 0.122982,0.318409 0.04582,0.152427 0.160877,0.590268 0.202443,0.770388 0.01059,0.04587 0.02146,0.08341 0.02417,0.08341 0.0027,0 0.01192,-0.06594 0.02047,-0.146526 0.02126,-0.200291 0.02169,-0.569357 8.12e-4,-0.719102 -0.0295,-0.211779 -0.0847,-0.397681 -0.152834,-0.514735 l -0.03105,-0.05333 h -0.262476 -0.262466 l -0.20669,0.152942 -0.206689,0.152943 -0.275797,-0.02253 c -0.222573,-0.01818 -0.278601,-0.02534 -0.290321,-0.03712 -0.008,-0.008 -0.01452,-0.01943 -0.01452,-0.02534 0,-0.0059 0.03056,-0.08136 0.06791,-0.16767 0.1497,-0.345905 0.247985,-0.656222 0.259607,-0.819674 0.0019,-0.02728 0.01499,-0.09199 0.02901,-0.143814 0.04795,-0.177282 0.109921,-0.557684 0.141823,-0.870593 0.0066,-0.06447 0.02585,-0.392624 0.04284,-0.729227 l 0.03089,-0.612006 0.02017,-0.01467 c 0.02611,-0.019 0.08883,-0.01893 0.11502,1.08e-4 0.01718,0.0125 0.04666,0.09878 0.189786,0.555512 l 0.169447,0.540716 0.130632,0.0052 c 0.196258,0.0078 0.347988,0.04264 0.524493,0.120426 0.276633,0.121914 0.568304,0.360501 0.762877,0.624031 0.03712,0.05028 0.06374,0.07906 0.06903,0.07464 0.0047,-0.004 0.09723,-0.07928 0.205552,-0.167382 0.108319,-0.0881 0.198834,-0.163579 0.201147,-0.167731 0.0023,-0.0042 -0.0114,-0.0097 -0.03047,-0.01234 -0.197932,-0.02734 -0.24921,-0.03618 -0.32296,-0.05561 -0.125552,-0.03309 -0.128017,-0.0371 -0.05206,-0.0847 0.1199,-0.07513 0.366923,-0.173675 0.600212,-0.239433 0.067,-0.01888 0.124724,-0.03711 0.128281,-0.0405 0.0036,-0.0034 -0.01106,-0.0134 -0.03248,-0.02225 -0.02142,-0.0088 -0.05174,-0.02435 -0.06737,-0.03445 -0.04617,-0.02983 -0.138054,-0.10656 -0.138054,-0.115274 0,-0.01277 0.103131,-0.06704 0.195518,-0.102892 0.04656,-0.01807 0.140952,-0.04876 0.209764,-0.06821 0.06881,-0.01945 0.126764,-0.0372 0.128784,-0.03944 0.002,-0.0022 -0.01095,-0.02359 -0.02882,-0.04743 -0.01787,-0.02384 -0.04939,-0.07379 -0.07006,-0.110982 l -0.03757,-0.06763 0.221443,-0.0056 c 0.121793,-0.0031 0.332048,-0.0061 0.467238,-0.0068 l 0.245795,-0.0012 0.139945,-0.110818 c 0.259498,-0.20549 0.478608,-0.352766 0.708405,-0.47616 0.246319,-0.132266 0.527398,-0.239492 0.751868,-0.286824 0.558738,-0.117815 0.963647,0.07798 1.188279,0.574613 0.0414,0.09154 0.07764,0.20423 0.09833,0.305805 0.01922,0.09437 0.01621,0.09843 -0.03895,0.05248 -0.173858,-0.144847 -0.363363,-0.178835 -0.53062,-0.09517 -0.127228,0.06365 -0.457337,0.503104 -0.711205,0.946788 -0.210061,0.367129 -0.492455,0.982544 -0.566852,1.235323 -0.06655,0.226137 -0.08663,0.475775 -0.05206,0.647526 0.01389,0.069 0.01563,0.396001 0.003,0.55173 -0.01762,0.216308 -0.05873,0.450324 -0.114839,0.653729 -0.13938,0.50522 -0.42604,1.003466 -0.761515,1.32359 -0.326842,0.311889 -0.671907,0.52355 -1.076332,0.660218 -0.573511,0.193806 -1.34189,0.23944 -2.032988,0.120739 l -0.108348,-0.01861 -0.337808,0.146315 c -0.185791,0.08047 -0.352645,0.148102 -0.370781,0.150285 -0.0205,0.0025 -0.03682,-4.11e-4 -0.04313,-0.0076 z m 2.887349,-3.012876 0.01834,-0.07439 -0.07982,-0.238949 -0.07982,-0.23895 -0.08754,-0.0026 c -0.06813,-0.002 -0.08694,10e-7 -0.08486,0.009 0.0051,0.02189 0.28499,0.620228 0.290168,0.620228 0.0029,0 0.01343,-0.03348 0.02352,-0.07439 z m -2.752656,-0.664485 0.147507,-0.121213 -7e-6,-0.131262 c -1e-5,-0.187505 -0.0219,-0.424722 -0.03914,-0.42412 -0.003,1.08e-4 -0.01614,0.01686 -0.02913,0.03723 -0.03771,0.05915 -0.284828,0.416469 -0.372549,0.538685 -0.0554,0.07718 -0.07713,0.113844 -0.07027,0.118552 0.0055,0.0037 0.0079,0.01531 0.0055,0.02569 -0.004,0.01715 0.0046,0.02206 0.09426,0.05367 0.05429,0.01913 0.10267,0.03236 0.10752,0.02939 0.0048,-0.003 0.0752,-0.05995 0.156327,-0.126618 z m -0.202655,-0.39701 c 0.06733,-0.121364 0.11976,-0.2233 0.116508,-0.226524 -0.01013,-0.01005 -0.156284,-0.06512 -0.160471,-0.06047 -0.0022,0.0024 -0.0254,0.123071 -0.05159,0.268106 -0.02855,0.15812 -0.04347,0.258867 -0.03724,0.251629 0.0057,-0.0066 0.06547,-0.111371 0.132795,-0.232736 z m 0.210935,-0.382631 c 0.05503,-0.03119 0.10433,-0.08731 0.137603,-0.156616 0.04624,-0.09634 0.05256,-0.09219 -0.140491,-0.09219 h -0.166478 v 0.140922 0.140921 l 0.06294,-0.0042 c 0.04733,-0.0032 0.07372,-0.0103 0.106429,-0.02884 z m 1.705725,-0.07786 c 0.05551,-0.04465 0.09828,-0.138436 0.09828,-0.215533 0,-0.02148 -0.115641,-0.192493 -0.210331,-0.311047 -0.235332,-0.294655 -0.526806,-0.489163 -0.812049,-0.541904 -0.09251,-0.0171 -0.277808,-0.01454 -0.335837,0.0046 l -0.03045,0.01007 v 0.14287 c 0,0.165282 -0.01402,0.145138 0.113692,0.163309 0.04243,0.006 0.07966,0.01348 0.08272,0.01653 0.0044,0.0044 0.07157,0.403617 0.07157,0.425455 0,0.0031 0.04972,0.0083 0.11048,0.0115 0.255397,0.0136 0.483467,0.07317 0.663171,0.173222 0.07777,0.0433 0.155495,0.09914 0.179777,0.129171 0.0204,0.02522 0.02852,0.02425 0.06898,-0.0083 z m 0.618013,-0.06288 c 0.0737,-0.0098 0.138558,-0.01783 0.144146,-0.01785 0.02022,-7.2e-5 0.0091,-0.01421 -0.03662,-0.04649 -0.113923,-0.08044 -0.250684,-0.135328 -0.434095,-0.174214 l -0.05452,-0.01156 -0.0092,0.03095 c -0.0082,0.02752 -0.0069,0.03474 0.01119,0.06516 0.02337,0.03921 0.08863,0.103088 0.147205,0.144069 0.04773,0.0334 0.05352,0.03364 0.231886,0.0099 z m -2.054579,-0.744123 c 0,-0.01828 -0.02911,-0.08206 -0.0548,-0.120088 -0.03902,-0.05776 -0.137227,-0.115661 -0.223341,-0.131686 l -0.03045,-0.0057 v 0.135663 0.135663 h 0.154296 c 0.133512,0 0.154295,-0.0019 0.154295,-0.01389 z m 3.599491,-0.03989 c 0.126679,-0.05324 0.217314,-0.191123 0.217314,-0.330608 0,-0.05733 -0.01027,-0.0898 -0.03909,-0.123625 -0.04946,-0.05804 -0.104467,-0.07222 -0.211327,-0.05447 -0.328746,0.05462 -0.609574,0.181475 -0.762373,0.344383 -0.03825,0.04078 -0.09164,0.121253 -0.09164,0.138124 0,0.0037 0.03026,-0.0091 0.06726,-0.02833 0.126812,-0.06598 0.287121,-0.115794 0.421635,-0.131007 l 0.05444,-0.0062 0.005,0.0258 c 0.01527,0.07833 0.06064,0.140382 0.128609,0.175895 0.04402,0.023 0.142797,0.0183 0.210148,-0.01 z m -3.649184,-0.357531 0.05169,-0.09571 -0.104241,-0.319066 c -0.05733,-0.175487 -0.107117,-0.319066 -0.110628,-0.319066 -0.0035,0 -0.0063,0.01521 -0.0063,0.03381 0,0.0186 -0.0077,0.193271 -0.0172,0.388164 -0.0095,0.194892 -0.01551,0.356349 -0.01331,0.358793 0.0032,0.0035 0.126942,0.04472 0.144164,0.048 0.0023,4.33e-4 0.02738,-0.04229 0.05581,-0.09493 z"
       id="path59" />
    <path
       style="fill:#deac36;fill-opacity:1;stroke:#000000;stroke-width:0;stroke-opacity:0.967803"
       d="m 37.754644,92.096165 c -0.01428,-0.0196 -0.152345,-0.331335 -0.196681,-0.444086 -0.290384,-0.738486 -0.467372,-1.493784 -0.519782,-2.218171 -0.01094,-0.151164 -0.01101,-0.571688 -1.3e-4,-0.716848 0.06443,-0.859047 0.340422,-1.586349 0.827491,-2.180631 0.154438,-0.188432 0.607428,-0.615277 0.984442,-0.92762 0.997112,-0.826076 1.90304,-1.303748 2.683013,-1.414676 0.133049,-0.01892 0.431035,-0.0216 0.540037,-0.0049 0.362966,0.05577 0.650928,0.191961 0.910049,0.430411 0.24,0.22085 0.433799,0.584731 0.530951,0.996923 0.05421,0.229981 0.07738,0.43876 0.07751,0.698388 0,0.176062 -0.01299,0.408201 -0.0237,0.420865 -0.0033,0.0039 -0.0751,-0.02316 -0.159595,-0.06007 -0.709321,-0.309899 -1.450758,-0.510531 -2.159481,-0.584354 -0.152896,-0.01593 -0.71956,-0.01598 -0.856754,-7.2e-5 -0.522945,0.0606 -0.955019,0.211983 -1.310183,0.459029 -0.0484,0.03366 -0.118076,0.0815 -0.154841,0.106292 -0.351187,0.236861 -0.658379,0.668855 -0.872501,1.226971 -0.337567,0.879881 -0.450089,2.047876 -0.333505,3.461847 0.01648,0.199824 0.06936,0.692538 0.07684,0.715898 0.0039,0.01227 -0.01743,0.04604 -0.02911,0.04604 -0.0032,0 -0.0096,-0.0051 -0.01408,-0.01127 z"
       id="path66" />
    <g
       id="g50"
       transform="matrix(0.85618443,0,0,0.80664271,8.5199553,14.121502)">
      <path
         id="path3-6"
         clip-path="url(#clipPath4)"
         style="fill:#000000;fill-opacity:1;fill-rule:evenodd;stroke:none"
         d="m 37.179967,38.669247 c -2.608467,-0.281311 -3.731356,-1.198245 -4.567032,-2.54115 -1.916,-7.428998 -4.791876,-7.695247 -12.208455,-7.511008 -2.644467,-0.07188 -4.353889,-0.28144 -6.549792,-0.517225 -2.909118,-1.746852 -2.31355,-2.64194 -2.918445,-3.867944 -0.34,-3.624 1.856588,-3.837432 4.611588,-3.890432 3.264,-0.065 6.530922,-0.02249 10.403922,-0.02249 -4.919,-11.1200003 -11.072459,-20.45914195 -21.0974594,-28.8971419 1.153,3.883 2.1002716,6.3068028 2.5842716,8.8378028 1.54,8.061 -1.9071917,12.0536651 -10.0251917,11.9186651 -0.6860312,-0.01088 -1.8010048,-0.04806 -2.1164293,0.202393 l -0.022278,0.02249 -0.022278,0.02249 v 0.02249 h -0.022278 v 0.02249 c -2.06,4.812 -4.6635137,1.704392 -6.5275132,0.202392 -2.961,-2.384 -5.471379,-5.3287447 -8.198379,-8.0057447 -3.648,-3.577 -7.307328,-7.1406315 -11.317328,-11.0416315 -1.159,1.715 -2.033497,2.8713127 -2.762497,4.1153127 -0.84,1.43300003 -1.443211,3.01565743 -2.339211,4.4076574 -3.592,5.587 -7.286252,5.5656315 -10.270252,-0.2473685 -1.89,-3.684 -3.46637,-7.5559045 -4.83437,-11.4689045 -2.255,-6.4619999 -4.212732,-13.0241139 -6.304732,-19.5421139 -0.523,1.134 -0.518339,2.128375 -0.267339,3.058375 4.231,15.732 8.553742,31.4324125 12.631742,47.202412 0.457,1.769 -0.500015,3.904381 -0.802015,5.869381 -1.482,-1.259 -3.402528,-2.247968 -4.366528,-3.822968 -5.465,-8.927 -10.764916,-17.9491219 -15.928916,-27.0531219 -0.831,-1.465 -0.661963,-3.4942032 -0.957963,-5.2622032 l 1.381249,-0.3373207 c 1.358,0.845 2.719754,1.677006 4.544754,2.811006 -0.084,-1.716 -0.03278,-2.989753 -0.222783,-4.2277532 -1.384,-9.033 -2.887302,-18.054098 -4.188302,-27.098098 -0.353,-2.452 -0.486556,-5.037544 -0.04456,-7.443544 0.289,-1.571 1.793497,-2.916681 2.762497,-4.362681 1.497,1.105 3.216363,2.016207 4.433363,3.373207 0.82,0.916 0.970248,2.443528 1.381248,3.710528 2.983,9.178 5.830395,18.412371 9.000395,27.525371 1.158,3.329 3.089656,6.391775 5.257656,10.771775 6.026,-10.317 12.538766,-9.628211 19.760766,-1.4842112 -0.158,-3.043 -0.256895,-4.5203088 -0.311895,-6.0043088 -0.272,-7.384 5.373682,-11.955349 12.386682,-9.692349 2.7779993,0.896 5.2239271,2.756289 7.8419271,4.160289 0.936,0.502 2.23905364,1.594307 2.80705364,1.304307 4.51399996,-2.31 6.75045456,0.820624 9.24545456,3.530624 4.0350007,4.3829995 8.1150807,8.7436132 12.8990807,13.8976132 -1.065,-6.208 -2.137385,-11.0989782 -2.673385,-16.0339782 -0.363,-3.346 -1.380172,-7.441028 2.628828,-9.355028 3.943,-1.882 6.467951,1.370552 9.044951,3.665552 1.491,1.327 2.922859,2.746241 4.232859,4.250241 1.889,2.169 3.629611,4.456199 5.814611,7.1511991 6.092,-13.1370001 11.559526,-10.9256971 18.780526,-8.0956971 2.607,1.023 4.748852,3.5285 6.794852,5.6445 3.516,3.6389999 6.782861,7.4935119 10.158861,11.26651194 0.462,-0.273 0.919248,-0.53456973 1.381248,-0.80956973 -1.471,-5.35400001 -3.189415,-10.66944221 -4.277415,-16.10144221 -0.421,-2.1 0.591963,-4.487415 0.957963,-6.746415 2.064,0.746 4.599228,0.975757 6.104228,2.338757 3.186,2.886 5.808777,6.397397 8.710777,9.602397 5.188,5.729 8.995757,9.3316454 13.433761,-1.214355 1.774,-4.215 5.94296,-4.863948 9.44596,-1.978948 1.103,0.909 1.86501,2.251313 3.36401,4.115313 0.4,-5.706 1.89784,-9.239857 6.39384,-11.558857 5.26,-2.713 10.07195,-2.425918 14.56995,0.787082 6.299,4.5 12.27491,9.446743 18.89191,14.5947431 1.028,-1.787 2.37234,-3.6334761 3.23034,-5.6894761 2.947,-7.063 8.97151,-8.686944 15.01551,-3.867944 1.384,1.105 2.68859,2.320872 4.61159,4.002872 -0.182,-1.259 -0.13789,-1.730388 -0.31189,-2.091388 -1.341,-2.783 -1.95076,-6.141008 0.98024,-7.511008 1.981,-0.925 5.14242,0.30745 7.64142,1.03445 1.33,0.388 2.43523,1.715054 3.54223,2.721054 3.298,3 6.55014,6.034004 10.18114,9.4000038 1.389,-4.5109998 1.76259,-9.2874438 7.57459,-9.5124438 4.735,-0.184 7.99925,2.36782 10.27025,5.98182 0.843,1.341 0.13367,3.6482513 0.13367,5.1722513 -2.862,-0.986 -4.89652,-1.6837331 -6.92852,-2.3837331 -0.573,2.153 -1.19714,4.2830698 -1.69314,6.4540698 -0.182,0.794 0.0479,1.6841733 -0.0891,2.49617331 -0.598,3.52599999 -2.62111,4.47717329 -5.61411,2.49617329 -1.654,-1.09499997 -3.12659,-2.48796812 -4.61159,-3.8229681 -3.667,-3.296 -7.2946,-6.6432053 -10.9386,-9.9622055 -0.489,0.431 -0.98136,0.871307 -1.47036,1.304307 1.732,2.149 3.31738,4.4380937 5.23538,6.4090937 5.225,5.36799998 7.89426,8.4906402 12.43714,11.7460432 2.84658,-1.9027496 4.66705,-13.8359602 9.55253,4.5207591 -2.86217,4.220772 -7.11331,5.500663 -9.55843,4.894451 -1.998,-0.529 -3.894,-1.873279 -5.525,-3.238279 -4.341,-3.6330001 -8.56113,-7.4290241 -12.74313,-11.2440241 -3.57,-3.254 -6.91387,-6.7542291 -10.55987,-9.9172291 -5.641,-4.8909998 -8.18079,-3.9672328 -9.51279,3.2607669 -0.391,2.126 -0.45941,4.2990937 -0.91341,6.4090937 -0.995,4.62 -2.8349,9.5606296 -6.2379,6.3416295 -2.167,-2.049 -5.60409,-8.34747813 -7.77509,-10.3894781 -4.833,-4.547 -9.50923,-9.4310678 -14.99323,-13.0430678 -2.2,-1.449 -7.10396,-1.044775 -9.44596,0.517225 -3.483,2.325 -1.68266,6.300028 0.26734,9.355028 0.874,1.37 2.12212,2.6345996 3.45312,3.5755996 3.504,2.48000003 7.09637,4.8477351 10.76037,7.0837351 3.039,1.853 4.32895,4.6640083 2.71795,7.5110083 -0.589,1.042 -4.4849,1.198297 -6.2379,0.382297 -3.419,-1.59 -6.57679,-3.940118 -9.51279,-6.364118 -5.604,-4.629 -10.98078,-9.5320399 -17.19878,-14.9770399 -1.54,3.294 -2.95441,6.2076355 -4.27741,9.1526355 -2.048,4.554 -4.32267,5.598743 -8.621671,3.305743 -2.145,-1.146 -4.040055,-2.9040259 -5.770055,-4.6550259 -2.543,-2.574 -4.839416,-5.3806973 -7.240416,-8.0956973 -0.39,1.592 -0.0021,2.7793845 0.311895,3.9803845 1.094,4.17500002 2.555392,8.3013308 3.074392,12.5483308 0.232,1.8980003 -0.944768,5.0809403 -2.383768,5.7569403 -1.522,0.714 -4.26934,-0.551187 -6.19334,-1.529187 -1.39,-0.707 -2.348844,-2.3136 -3.430844,-3.5755999 -4.12,-4.804 -8.028959,-9.8178627 -12.408959,-14.3698627 -1.968,-2.045 -4.722642,-3.8696096 -7.418642,-4.4976094 -1.712,-0.398 -4.558777,1.1260775 -5.747777,2.6760775 l -0.02228,0.022488 c -0.51357,0.9705773 3.497621,5.4406904 4.58931,7.0837351 2.877175,4.3302842 3.891886,5.1700516 5.992837,10.1421096 1.374292,3.2523648 1.704022,7.7071578 -1.759978,10.0521578 -3.633,2.461 -8.506425,0.589874 -10.604425,-2.586126 -3.339,-5.054 -5.70565,-8.5214701 -7.81965,-14.1674701 -2.564,-6.848 -7.680471,-12.3804523 -13.010471,-17.0234519 -0.356,1.298 -0.668233,1.788828 -0.579233,2.203828 2.132,9.9070003 4.297514,19.8002236 6.527514,29.684224 0.06689,1.595522 1.69382,2.763006 2.22782,2.811006 2.753,0.253 7.66069,0.07571 9.691019,1.03445 2.03033,0.958735 5.983821,7.66015 0.913406,7.533496 -3.764331,-0.09403 -9.110351,-0.215239 -7.262694,6.004309 0.112451,1.54612 -1.645543,2.905537 -3.007558,3.283255 z M 55.448094,15.93383 c 0.385195,0.02141 0.861331,-0.09055 1.381249,-0.472249 0.67986,-2.208924 0.831447,-4.049483 -2.383768,-6.0942607 -1.905824,-1.212296 -7.176204,-8.3613195 -7.19586,-8.38804187 0,0 1.906991,7.97251207 5.814611,13.22297257 0.727282,0.977066 1.228536,1.272296 1.336693,1.326794 0,0 0.405084,0.369109 1.047075,0.404785 z M -3.3440854,3.3854996 c 0.1496934,0.00932 0.2996609,-0.019214 0.4232859,-0.067464 1.491,-0.581 2.38444468,-2.66123108 2.91844468,-3.32823108 -0.129,-5.62300002 -5.32951478,-13.33935052 -9.49051478,-14.39235052 -1.2328124,-0.312188 -4.1576004,1.389163 -4.4556404,1.866508 l -0.02228,0.02249 v 0.02249 0.02249 c 0.836,3.519 1.964844,7.009014 3.430844,10.322014 0.5909998,1.33599997 2.0940086,2.36425497 3.3640086,3.283255 1.16375,0.84175 2.7839975,2.1835899 3.831851,2.2488048 z"
         transform="matrix(0.02319596,0,0,-0.02297951,50.200152,97.380197)" />
      <path
         id="path5-1"
         clip-path="url(#clipPath15)"
         style="fill:#000000;fill-opacity:1;fill-rule:evenodd;stroke:none"
         d="m 14.053474,66.210295 c -0.651029,0.03278 -1.374458,-0.06453 -2.138708,-0.292344 -10.4279995,-3.105 -19.7533325,-8.043309 -26.132333,-17.293309 -5.058,-7.335 -4.805593,-14.799062 0.913407,-21.521062 4.0989998,-4.815 8.6821324,-9.230518 12.74313238,-14.077518 5.01700002,-5.9890002 4.86895512,-7.34758 0.55695509,-13.02057999 -2.56299997,0.161 -4.19788167,0.72136853 -5.43588167,0.24736853 -3.557,-1.36200004 -7.1340868,-2.85690644 -10.3370868,-4.87990644 -1.828,-1.153 -2.934528,-3.4382271 -4.366528,-5.2172271 2.582,-1.4 5.089093,-3.691408 7.775093,-3.935408 2.5350004,-0.23 5.3464845,1.495565 7.8864845,2.698565 7.051,3.3410004 11.9800603,10.39048849 20.5850605,11.31148849 2.303,0.247 4.307679,3.19339441 6.460679,4.90239441 4.415,-4.22299995 3.705561,-13.7675937 11.896561,-12.0535937 5.343,1.117 10.039509,5.3371615 15.015509,8.1631615 4.93,-9.424 14.500986,-11.0308865 22.500986,-3.0358865 2.462,2.46099998 4.360017,5.4622331 6.728017,8.0282331 1.754,1.9 3.836055,3.4842271 5.770055,5.2172267 0.353,-0.323 0.716354,-0.643986 1.069354,-0.966986 -1.425,-5.2679996 -3.058024,-10.4985854 -4.166024,-15.8315854 -0.411,-1.975 0.410346,-4.2051415 0.668346,-6.3191416 2.185,0.684 4.969401,0.757341 6.438401,2.1813408 3.81,3.689 6.86359,8.1421295 10.53759,11.9861295 5.604997,5.861 6.415137,5.6676933 10.181137,-1.3043067 4.063,-7.52 7.96098,-7.9926275 13.61198,-1.64162755 3.903,4.38500005 7.82762,8.75702005 11.74062,13.13301995 0.5,-1.646 0.20855,-2.7634322 0.0446,-3.8904322 -0.756,-5.251 -1.94087,-10.4951217 -2.07187,-15.7641217 -0.122,-4.8550001 3.73904,-6.7057291 7.93104,-4.2727291 1.553,0.901 2.88903,2.2151355 4.16603,3.5081355 3.219,3.26 6.34974,6.6211335 9.66874,10.0971335 5.981,-10.357 12.48285,-12.0147729 21.20885,-6.0717729 4.701,3.2 5.05297,4.8406594 1.75997,9.1076594 -1.236,-0.771 -2.43401,-1.6972689 -3.76501,-2.3162689 -3.056,-1.42 -6.3315,-1.968502 -8.6885,0.944498 -2.495,3.082 0.52871,4.9556634 2.13871,7.2186634 2.869,4.03 5.43086,7.396665 7.19586,11.918665 0.889,2.279 1.45904,6.42739 -0.33418,8.927755 -3.52213,0.861539 -3.28591,1.536466 -9.66874,-0.764593 -5.496,-4.359 -7.56125,-9.337632 -10.44847,-17.405749 -1.728,-6.6979998 -6.64635,-11.1640402 -12.11935,-14.9770402 1.539,10.674 3.90301,20.9938742 6.32701,31.2808742 0.132,0.558 0.72203,1.334747 1.20303,1.416747 5.742,0.974 10.29471,-1.976334 10.40391,6.386606 0.0267,2.042953 -8.77911,1.382839 -6.83937,7.443544 0.84635,3.387235 1.91492,5.314151 -1.15847,5.801916 -2.72835,0.226331 -4.44581,-0.7049 -4.78981,-2.0689 -1.68,-6.678 -6.28773,-8.335377 -11.82973,-7.758377 -1.817,0.19 -3.69272,-0.05758 -5.50272,0.157417 -3.546,0.424 -4.7297,-1.497562 -5.1017,-4.587562 -0.411,-3.418 1.47408,-4.485098 4.41108,-4.520098 3.394,-0.04 6.77198,0 10.64898,0 -4.936,-11.345 -11.38045,-20.591261 -20.69645,-28.6722608 -1.183,2.829 -2.20211,5.0625916 -3.05211,7.3535918 -2.77,7.465 -7.31931,8.631862 -13.07731,3.080862 -3.432999,-3.309 -6.501574,-6.987918 -9.735574,-10.501918 -0.273,2.282 0.408128,4.2082132 0.891128,6.1842132 0.98,4.0189998 2.266106,8.0360578 2.651106,12.1210578 0.366,3.895 -2.763731,5.733873 -6.304731,4.002873 -1.586,-0.775 -3.007303,-2.10816 -4.188303,-3.46316 -4.488,-5.146 -8.673365,-10.548241 -13.322365,-15.5392409 -1.959,-2.102 -4.596695,-4.2279303 -7.262695,-4.8349303 -2.073,-0.471 -5.56404,1.0118965 -7.93104,3.4856474 -0.800963,3.229713 4.719098,4.2341289 6.594348,6.9488068 2.474926,2.213979 3.78301,4.730444 6.32701,9.512444 1.488,2.798 0.839946,8.781206 -2.807054,9.962206 -2.41,0.779 -8.174627,0.528181 -9.579627,-1.281819 -5.38427,-4.257519 -6.578636,-9.039207 -9.980636,-14.662207 -2.19,-3.617 -3.073558,-10.3714129 -5.970558,-13.3354129 -3.291,-3.366 -6.366755,-2.05789839 -7.507755,2.6311016 -0.548,2.259 -0.409579,4.7408543 -1.247579,6.8588543 -0.845,2.135 -2.198964,5.087036 -3.920964,5.577036 -1.573,0.448 -4.261446,-1.56335 -5.881446,-3.10335 -3.234,-3.076 -6.081357,-6.5677275 -9.958357,-10.8617275 -0.411,9.7949995 -4.5071918,16.0564785 -10.0251918,21.6784785 -2.55799996,2.606 -4.999747,5.368065 -7.106747,8.343065 -5.819,8.225 -3.7785542,14.875674 5.8814458,19.429674 -0.986,-1.654 -1.91572286,-3.206883 -2.94072286,-4.924883 5.92599996,-1.278 18.01152586,6.545809 18.78052586,11.648809 0.524875,3.473438 -1.099837,5.929732 -3.920964,6.071773 z M 64.936891,28.070566 c 2.586434,0.177052 1.358971,-3.170815 1.358971,-3.170815 l -4.032355,-4.83493 c 0,0 -4.781914,-1.783907 -8.6885,-5.981821 l 0.111391,0.764594 c 0,0 2.409027,9.134276 8.06471,12.098569 1.433534,0.751363 2.461582,1.074828 3.185783,1.124403 z"
         transform="matrix(0.02319596,0,0,-0.02297951,41.654977,97.65961)" />
      <path
         id="path7-4"
         d="M -2.0887068,8.0425854 C -4.0558457,6.1200495 -9.684943,-12.269772 -13.131943,-20.244772 c -0.368233,-2.015751 2.681485,0.813228 3.6995224,1.086286 3.56,7.945 11.1867215,29.84846 11.1867215,29.84846 M 3.478,-48.045 c -10.4,-9.704 -18.097,-8.541 -23.405,5.044 -1.257,-0.479 -2.52,-0.962 -3.906,-1.491 -2.463,2.134 -2.606,3.889 -0.075,6.513 1.764,1.831 3.025,4.71 3.355,7.27 2.098,16.297 7.208,31.396 16.725,44.902 1.935,2.748 4.056,5.167 7.785,3.574 3.741,-1.6 2.578,-4.914 2.246,-7.816 -1.569,-13.725 -7.05,-25.877 -14.682,-37.254 -2.049,-3.056 -4.293,-6.663 -4.503,-10.135 -0.442,-7.308 5.814,-10.673 11.787,-6.455 4.716,3.331 8.705,7.688 13.044,11.559 4.719,4.212 9.467,8.393 14.212,12.578 2.829454,2.857021 4.971774,2.356115 5.99386,1.63024 3.528098,-2.335261 5.339055,-13.194591 2.466772,-13.547334 -4.885803,-0.600023 -3.724369,6.534439 -6.56054,5.43292 -6.040246,-3.476672 -6.823436,-5.778652 -11.559436,-10.695652 -1.665,-1.727 -3.552122,-4.991904 -3.860902,-7.442751 C 11.500484,-44.475154 14.493,-45.337 14.84,-45.689 c 3.125,2.735 6.265,5.455 9.37,8.212 1.494,1.328 2.769,2.971 4.426,4.026 1.589,1.011 3.563361,2.154717 5.276988,1.495942 C 35.626615,-32.613833 35.284,-34.804 35.865,-36.569 c 0.149,-0.45 -0.124,-1.039 0.03,-1.484 0.711,-2.06 1.506,-4.093 2.271,-6.135 1.805,0.844 3.608,1.688 6.336,2.964 0.133,-1.647 1.071,-3.986 0.284,-5.259 -2.431,-3.931 -5.903,-6.905 -11.012,-6.472 -5.372,0.454 -5.377,5.089 -6.671,9.782 -1.616,-1.296 -2.93,-2.259 -4.14,-3.339 -2.854,-2.545 -5.345,-5.689 -8.579,-7.557 -2.714,-1.567 -6.274,-1.67 -9.458,-2.422 -0.499,2.908 -0.997,5.816 -1.448,8.446"
         style="fill:#000000;fill-opacity:1;fill-rule:evenodd;stroke:none"
         transform="matrix(0.02319596,0,0,-0.02297951,46.997796,96.598511)"
         clip-path="url(#clipPath8)" />
      <path
         id="path25"
         d="m 0,0 c 1.041,10.648 2.169,20.349 2.878,30.08 0.461,6.335 0.237,12.718 0.461,19.074 0.229,6.547 5.281,12.063 12.662,13.444 0.114,-1.611 0.538,-3.206 0.284,-4.686 C 13.788,43.333 11.162,28.776 8.616,14.206 8.246,12.09 8.065,9.938 7.867,7.796 7.464,3.446 4.439,1.83 0,0"
         style="fill:#000000;fill-opacity:1;fill-rule:evenodd;stroke:none"
         transform="matrix(0.02319596,0,0,-0.02297951,55.545393,97.593858)"
         clip-path="url(#clipPath26)" />
      <path
         id="path29"
         d="m 0,0 c -3.743,0.006 -5.603,3.601 -3.197,7.068 1.749,2.521 4.248,4.626 6.74,6.473 0.937,0.695 3.159,0.664 4.135,-0.002 C 8.537,12.952 8.92,10.957 8.747,9.688 7.905,3.521 4.588,-0.006 0,0"
         style="fill:#000000;fill-opacity:1;fill-rule:evenodd;stroke:none"
         transform="matrix(0.02319596,0,0,-0.02297951,42.35396,96.883758)"
         clip-path="url(#clipPath30)" />
      <path
         id="path31"
         d="m 0,0 c -0.476,0.339 -2.583,1.2 -2.538,1.929 0.151,2.495 0.308,5.714 1.857,7.229 2.269,2.218 5.717,3.259 8.743,4.626 0.305,0.138 1.443,-0.817 1.709,-1.466 C 11.582,7.931 5.801,-0.093 0,0"
         style="fill:#000000;fill-opacity:1;fill-rule:evenodd;stroke:none"
         transform="matrix(0.02319596,0,0,-0.02297951,53.950196,96.884611)"
         clip-path="url(#clipPath32)" />
      <path
         id="path33"
         d="m 0,0 c -2.522,-2.72 -3.845,-5.302 -5.833,-6.005 -2.663,-0.943 -6.408,3.669 -5.915,7.668 0.266,2.158 2.389,4.088 3.675,6.121 C -5.64,5.437 -3.206,3.092 0,0"
         style="fill:#000000;fill-opacity:1;fill-rule:evenodd;stroke:none"
         transform="matrix(0.02319596,0,0,-0.02297951,39.794351,97.774282)"
         clip-path="url(#clipPath34)" />
      <path
         id="path35"
         d="M 0,0 C 0.751,0.72 2.043,2.946 3.807,3.42 6.524,4.149 10.249,-0.75 9.638,-4.417 9.328,-6.279 7.819,-8.997 6.336,-9.393 3.154,-10.242 -0.122,-5.739 0,0"
         style="fill:#000000;fill-opacity:1;fill-rule:evenodd;stroke:none"
         transform="matrix(0.02319596,0,0,-0.02297951,40.115503,97.698072)"
         clip-path="url(#clipPath36)" />
      <path
         id="path37"
         d="M 0,0 C 0.525,0.517 1.812,2.849 3.54,3.241 6.264,3.861 9.922,-0.969 9.37,-4.622 9.094,-6.449 7.409,-9.083 5.873,-9.485 2.832,-10.28 -0.058,-6.13 0,0"
         style="fill:#000000;fill-opacity:1;fill-rule:evenodd;stroke:none"
         transform="matrix(0.02319596,0,0,-0.02297951,40.733221,97.693179)"
         clip-path="url(#clipPath38)" />
      <path
         id="path39"
         d="m 0,0 c 0.055,-6.533 -2.072,-9.075 -6.768,-8.588 -1.328,0.138 -3.204,2.147 -3.503,3.575 -0.625,2.986 3.64,6.954 7.088,6.74 C -1.883,1.646 -0.656,0.378 0,0"
         style="fill:#000000;fill-opacity:1;fill-rule:evenodd;stroke:none"
         transform="matrix(0.02319596,0,0,-0.02297951,55.71191,97.712682)"
         clip-path="url(#clipPath40)" />
    </g>
    <g
       id="g53"
       transform="matrix(0.64863032,0,0,0.72277203,10.603425,32.383838)">
      <path
         id="path15"
         d="m 0,0 c 7.987,-1.02 15.566,-1.741 23.047,-3.036 4.378,-0.759 6.954,-4.547 6.041,-8.455 -1.333,-5.71 0.891,-11.03 0.335,-16.528 -0.099,-0.975 -0.014,-1.969 -0.014,-3.388 h -7.251 c -0.656,3.296 -0.286,7.676 -2.29,9.662 -1.81,1.794 -6.214,0.972 -9.835,1.34 v 6.888 c 3.604,0.201 7.127,0.396 10.65,0.592 -0.001,0.736 -0.003,1.472 -0.004,2.208 -4.048,0.327 -8.095,0.654 -12.745,1.029 V -31.323 H 0 Z"
         style="fill:#000000;fill-opacity:1;fill-rule:evenodd;stroke:none"
         transform="matrix(0.05315105,0,0,-0.05315105,38.905521,77.764843)"
         clip-path="url(#clipPath16-7)" />
      <path
         id="path9-8"
         d="m 0,0 h -7.639 c 0,4.902 0.14,9.825 -0.036,14.737 -0.204,5.719 -1.33,6.61 -7.517,6.548 V 10.416 -0.162 h -8.413 c 0,4.977 0.172,9.763 -0.044,14.53 -0.261,5.731 -0.846,6.181 -7.319,7.086 V -0.039 h -7.754 v 31.662 c 6.05,-1.404 11.73,-2.722 17.798,-4.13 3.209,3.737 7.914,1.811 12.226,0.906 4.812,-1.008 8.186,-4.321 8.578,-9.252 C 0.376,12.909 0,6.601 0,0"
         style="fill:#000000;fill-opacity:1;fill-rule:evenodd;stroke:none"
         transform="matrix(0.05315105,0,0,-0.05315105,33.514245,79.434481)"
         clip-path="url(#clipPath10-5)" />
      <path
         id="path11-6"
         d="m 0,0 c 0,-4.231 -0.124,-7.863 0.092,-11.475 0.05,-0.838 1.234,-2.276 1.931,-2.297 4.303,-0.129 8.981,-0.865 12.744,0.613 1.515,0.595 1.032,6.279 1.455,9.647 0.02,0.164 0.085,0.403 0.004,0.489 -0.955,1.02 -1.87,2.799 -2.917,2.885 C 9.186,0.198 5.018,0 0,0 m 8.252,-22.101 c -15.166,-0.064 -16.473,1.261 -16.335,16.533 0.1,11.161 2.227,13.29 13.518,13.479 2.332,0.039 4.667,0.057 6.998,-0.003 9.38,-0.239 11.677,-2.533 11.851,-12.03 0.061,-3.326 0,-6.674 -0.3,-9.984 -0.522,-5.761 -2.851,-7.81 -8.734,-7.983 -2.331,-0.068 -4.665,-0.012 -6.998,-0.012"
         style="fill:#000000;fill-opacity:1;fill-rule:evenodd;stroke:none"
         transform="matrix(0.05315105,0,0,-0.05315105,37.463097,78.276313)"
         clip-path="url(#clipPath12-3)" />
      <path
         id="path13"
         d="m 0,0 c -4.683,0 -9.105,0.132 -13.506,-0.113 -0.867,-0.048 -2.299,-1.501 -2.363,-2.386 -0.266,-3.719 -0.112,-7.467 -0.112,-11.175 H 0 Z m -7.517,-22.164 c -15.501,0.062 -16.316,0.882 -16.266,16.479 0.006,1.997 0.006,4.006 0.229,5.985 0.471,4.186 2.876,6.909 7.064,7.13 5.971,0.315 11.976,0.254 17.956,0.037 3.953,-0.144 6.047,-2.894 6.31,-6.555 0.38,-5.304 0.577,-10.663 0.253,-15.962 -0.265,-4.331 -2.987,-6.949 -7.549,-7.097 -2.663,-0.087 -5.331,-0.017 -7.997,-0.017"
         style="fill:#000000;fill-opacity:1;fill-rule:evenodd;stroke:none"
         transform="matrix(0.05315105,0,0,-0.05315105,34.947766,78.275125)"
         clip-path="url(#clipPath14-2)" />
      <path
         id="path17"
         d="M 0,0 C 3.759,0.306 7.233,0.589 10.707,0.872 10.718,1.497 10.729,2.123 10.74,2.749 6.673,3.152 2.606,3.556 -2.1,4.022 v -21.677 h -7.722 v 31.58 c 7.867,-1.079 15.514,-1.603 22.837,-3.426 2.468,-0.614 5.548,-4.358 5.858,-6.969 0.82,-6.906 0.278,-13.973 0.278,-21.312 H 11.449 C 12.215,-9.836 10.362,-3.942 0,-7.636 Z"
         style="fill:#000000;fill-opacity:1;fill-rule:evenodd;stroke:none"
         transform="matrix(0.05315105,0,0,-0.05315105,28.306037,78.495099)"
         clip-path="url(#clipPath18-3)" />
      <path
         id="path19-5"
         d="m 0,0 h -7.737 c 0.258,17.396 14.116,30.404 31.214,29.328 1.164,-0.073 3.141,-1.912 3.173,-2.976 0.261,-8.619 0.147,-17.248 0.147,-26.22 h -7.818 v 21.247 c -2.77,-0.682 -4.953,-1.219 -7.137,-1.755 0.03,-0.392 0.06,-0.782 0.089,-1.174 1.508,-0.293 3.017,-0.586 4.834,-0.938 V 10.726 C 9.213,10.343 -0.915,13.414 0,0"
         style="fill:#000000;fill-opacity:1;fill-rule:evenodd;stroke:none"
         transform="matrix(0.05315105,0,0,-0.05315105,29.854322,79.439668)"
         clip-path="url(#clipPath20-1)" />
      <path
         id="path21-0"
         d="M 0,0 H -6.92 C -7.039,18.235 8.17,31.392 26.991,29.328 V 0.279 H 19.39 v 21.138 c -2.816,-0.676 -5.055,-1.214 -7.293,-1.751 0.016,-0.39 0.032,-0.778 0.048,-1.168 1.502,-0.213 3.005,-0.426 4.861,-0.689 v -6.924 c -2.524,0 -5.16,-0.313 -7.694,0.064 C 4.077,11.729 1.567,9.474 0.977,4.449 0.807,3 0.356,1.583 0,0"
         style="fill:#000000;fill-opacity:1;fill-rule:evenodd;stroke:none"
         transform="matrix(0.05315105,0,0,-0.05315105,26.162035,79.451766)"
         clip-path="url(#clipPath22-3)" />
      <path
         id="path23-2"
         d="m 0,0 c 7.755,-1.105 15.013,-1.926 22.18,-3.239 4.449,-0.816 7.528,-5.41 7.145,-9.595 -0.438,-4.785 -3.865,-7.998 -8.981,-8.285 -2.491,-0.14 -4.993,-0.11 -7.49,-0.108 -0.818,0 -1.637,0.154 -2.825,0.274 v 6.746 c 3.429,0.259 7.088,0.534 10.746,0.81 0.02,0.689 0.04,1.377 0.06,2.066 -4.14,0.259 -8.279,0.518 -12.98,0.811 V -32.353 H 0 Z"
         style="fill:#000000;fill-opacity:1;fill-rule:evenodd;stroke:none"
         transform="matrix(0.05315105,0,0,-0.05315105,24.341612,77.752956)"
         clip-path="url(#clipPath24-7)" />
      <path
         id="path27-8"
         d="m 0,0 c -0.187,-2.229 -0.364,-4.351 -0.586,-7.007 -3.182,-0.352 -6.249,-0.692 -9.827,-1.089 V -29.571 H -18.16 V -8.465 C -28.383,-6.648 -28.383,-6.648 -27.29,0 Z"
         style="fill:#000000;fill-opacity:1;fill-rule:evenodd;stroke:none"
         transform="matrix(0.05315105,0,0,-0.05315105,36.955409,77.865331)"
         clip-path="url(#clipPath28-2)" />
    </g>
  </g>
</svg>
